HIERARCHY
ROOT Hips
{
 OFFSET 0.000000 0.000000 0.000000
 CHANNELS 6 Xposition Yposition Zposition Yrotation Xrotation Zrotation
 JOINT Chest
 {
  OFFSET 0.000000 9.581000 -0.001100
  CHANNELS 3 Yrotation Xrotation Zrotation
  JOINT Chest2
  {
   OFFSET 0.000000 9.561100 0.002200
   CHANNELS 3 Yrotation Xrotation Zrotation
   JOINT Chest3
   {
    OFFSET 0.000000 9.521100 0.000000
    CHANNELS 3 Yrotation Xrotation Zrotation
    JOINT Chest4
    {
     OFFSET 0.000000 9.511400 0.000000
     CHANNELS 3 Yrotation Xrotation Zrotation
     JOINT Neck
     {
      OFFSET 0.000000 14.375100 0.000000
      CHANNELS 3 Yrotation Xrotation Zrotation
      JOINT Head
      {
       OFFSET 0.000000 8.901200 0.004600
       CHANNELS 3 Yrotation Xrotation Zrotation
       End Site
       {
        OFFSET 0.000000 16.962200 0.002400
       }
      }
     }
     JOINT RightCollar
     {
      OFFSET -2.920100 9.518800 0.000000
      CHANNELS 3 Yrotation Xrotation Zrotation
      JOINT RightShoulder
      {
       OFFSET -13.664500 0.000000 0.000000
       CHANNELS 3 Yrotation Xrotation Zrotation
       JOINT RightElbow
       {
        OFFSET 0.000000 -29.999200 0.000000
        CHANNELS 3 Yrotation Xrotation Zrotation
        JOINT RightWrist
        {
         OFFSET 0.000000 -24.253600 0.000000
         CHANNELS 3 Yrotation Xrotation Zrotation
         End Site
         {
          OFFSET 0.000000 -17.918900 0.000000
         }
        }
       }
      }
     }
     JOINT LeftCollar
     {
      OFFSET 2.920100 9.518800 0.000000
      CHANNELS 3 Yrotation Xrotation Zrotation
      JOINT LeftShoulder
      {
       OFFSET 13.664500 0.000000 0.000000
       CHANNELS 3 Yrotation Xrotation Zrotation
       JOINT LeftElbow
       {
        OFFSET 0.000000 -29.999200 0.000000
        CHANNELS 3 Yrotation Xrotation Zrotation
        JOINT LeftWrist
        {
         OFFSET 0.000000 -24.253600 0.000000
         CHANNELS 3 Yrotation Xrotation Zrotation
         End Site
         {
          OFFSET 0.000000 -17.918900 0.000000
         }
        }
       }
      }
     }
    }
   }
  }
 }
 JOINT RightHip
 {
  OFFSET -7.797300 0.005300 0.000500
  CHANNELS 3 Yrotation Xrotation Zrotation
  JOINT RightKnee
  {
   OFFSET 0.000000 -40.663400 -0.000500
   CHANNELS 3 Yrotation Xrotation Zrotation
   JOINT RightAnkle
   {
    OFFSET 0.000000 -39.523700 -0.000900
    CHANNELS 3 Yrotation Xrotation Zrotation
    JOINT RightToe
    {
     OFFSET 0.000000 -6.418000 14.485300
     CHANNELS 3 Yrotation Xrotation Zrotation
     End Site
     {
      OFFSET 0.000000 -1.465200 6.326400
     }
    }
   }
  }
 }
 JOINT LeftHip
 {
  OFFSET 7.797300 0.005300 0.000500
  CHANNELS 3 Yrotation Xrotation Zrotation
  JOINT LeftKnee
  {
   OFFSET 0.000000 -40.663400 -0.000500
   CHANNELS 3 Yrotation Xrotation Zrotation
   JOINT LeftAnkle
   {
    OFFSET 0.000000 -39.523700 -0.000900
    CHANNELS 3 Yrotation Xrotation Zrotation
    JOINT LeftToe
    {
     OFFSET 0.000000 -6.418000 14.485300
     CHANNELS 3 Yrotation Xrotation Zrotation
     End Site
     {
      OFFSET 0.000000 -1.465200 6.326400
     }
    }
   }
  }
 }
}
MOTION
Frames: 14
Frame Time: 0.008333
0.000000 86.422400 0.000000 0.000000 -5.767877 0.000000 0.000000 11.653817 0.000000 0.000000 -5.885947 0.000000 0.000000 -0.000000 0.000000 0.000000 -0.000000 0.000000 0.000000 12.528835 0.000000 0.000000 0.711642 0.000000 0.000000 -0.000000 0.000000 0.000000 0.000000 -90.000000 0.000000 -2.309062 0.000000 0.000000 2.309062 0.000000 0.000000 -0.000000 0.000000 0.000000 -0.000000 90.000000 0.000000 -2.309062 0.000000 0.000000 2.309062 0.000000 0.000000 8.520406 0.000000 0.000000 1.905762 0.000000 -0.000000 -4.658285 0.000000 0.000000 -0.000000 0.000000 0.000000 8.520406 0.000000 0.000000 1.905762 0.000000 -0.000000 -4.658285 0.000000 0.000000 -0.000000 0.000000
-15.130035 126.910448 11.741828 -174.833100 -47.422460 -4.226722 2.008946 27.409658 2.562622 0.260893 4.876571 0.367704 0.415734 7.601748 0.594267 1.523312 22.357291 1.977406 4.624686 12.416904 5.355294 3.757524 -12.548172 4.707274 2.036036 4.191465 1.717952 -1.215470 -11.266694 -9.594510 -77.084340 -41.539880 134.452682 -1.242662 14.829924 19.630235 -9.574937 -0.244001 -1.346489 -6.355856 -14.069414 14.320023 43.297914 -29.327469 -108.755163 4.241792 0.844080 -31.998857 -0.252381 -25.503031 -0.100081 -10.624519 73.891924 -14.056652 9.994900 -7.511965 9.283117 0.001362 -0.005057 0.000604 5.499250 -5.525029 4.634535 144.382364 69.755204 161.572799 -2.784981 -14.700663 -12.335763 0.001575 -0.004544 0.000698
-15.129380 126.909973 11.741668 -174.844734 -47.411856 -4.224937 2.033661 27.478781 2.573676 0.259308 4.845383 0.370337 0.414512 7.589184 0.594723 1.528599 22.365079 1.979801 4.619068 12.385902 5.350371 3.746791 -12.638847 4.701951 2.061340 4.109066 1.735705 -1.212018 -11.311302 -9.571715 -77.188736 -41.542868 134.518497 -1.219393 14.840231 19.698162 -9.648593 -0.324867 -1.334622 -6.353169 -14.074894 14.301101 43.375274 -29.351321 -108.809136 4.256986 0.849978 -31.983149 -0.250334 -25.514165 -0.097432 -10.625367 73.892118 -14.058233 10.021465 -7.520888 9.280163 0.002421 -0.005348 0.001073 5.503079 -5.534441 4.635833 144.377985 69.748756 161.568233 -2.786619 -14.705394 -12.333866 0.002107 -0.004362 0.000933
-15.128783 126.909306 11.741549 -174.857399 -47.398803 -4.222366 2.052903 27.498507 2.583501 0.261897 4.855428 0.371391 0.416045 7.611205 0.596881 1.547028 22.395915 1.984735 4.598843 12.295618 5.343424 3.739261 -12.728414 4.696096 2.090752 3.948545 1.756143 -1.245984 -11.290908 -9.573551 -77.321361 -41.537959 134.653131 -1.196148 14.845293 19.767248 -9.734988 -0.463824 -1.308356 -6.405896 -14.120002 14.290302 43.471696 -29.336657 -108.805838 4.253803 0.857680 -31.986705 -0.246706 -25.525150 -0.088337 -10.638459 73.890542 -14.067912 9.993460 -7.532537 9.278004 -0.004025 -0.006005 -0.001783 5.505075 -5.543201 4.633899 144.376546 69.737605 161.568456 -2.784431 -14.719806 -12.339085 0.004308 -0.002982 0.001908
-15.128816 126.909740 11.740259 -174.865339 -47.394059 -4.220219 2.064229 27.508866 2.588738 0.267052 4.878090 0.371016 0.421737 7.631981 0.600647 1.562006 22.421351 1.989025 4.590914 12.197610 5.333415 3.721397 -12.806838 4.699945 2.082855 3.842150 1.763861 -1.221359 -11.365107 -9.556626 -77.414423 -41.531740 134.713751 -1.169884 14.851690 19.845170 -9.805025 -0.585852 -1.278423 -6.405521 -14.133569 14.283388 43.554434 -29.354998 -108.873774 4.242055 0.870038 -31.990440 -0.240153 -25.527379 -0.081549 -10.623575 73.891272 -14.055277 9.986462 -7.539664 9.280731 -0.004278 -0.005419 -0.001895 5.505302 -5.542703 4.632241 144.372272 69.737302 161.559772 -2.780772 -14.722921 -12.340124 0.004921 -0.002334 0.002180
-15.128687 126.910043 11.738938 -174.868772 -47.387326 -4.222151 2.072746 27.515864 2.594162 0.271083 4.898713 0.371503 0.426855 7.647730 0.600979 1.569909 22.428362 1.995526 4.585629 12.123047 5.328791 3.717702 -12.885807 4.697469 2.114202 3.693942 1.780271 -1.227635 -11.365402 -9.560650 -77.512318 -41.515457 134.788606 -1.137516 14.862869 19.933658 -9.864539 -0.681142 -1.247268 -6.388954 -14.138188 14.268727 43.649443 -29.398147 -108.965978 4.221826 0.886769 -31.990198 -0.232756 -25.529505 -0.079069 -10.630018 73.888262 -14.054448 9.992818 -7.546579 9.278768 -0.004283 -0.003938 -0.001897 5.505862 -5.549130 4.630773 144.364514 69.734509 161.550809 -2.781418 -14.718119 -12.336204 0.004587 -0.002846 0.002032
-15.128724 126.909607 11.738150 -174.869127 -47.373804 -4.224593 2.085669 27.549262 2.599978 0.269769 4.885520 0.375242 0.428878 7.658348 0.599708 1.577243 22.437197 2.003054 4.584199 12.049096 5.324456 3.718184 -12.964066 4.694502 2.136242 3.572129 1.787328 -1.247714 -11.332956 -9.567385 -77.642893 -41.498177 134.949036 -1.098246 14.877434 20.027304 -9.920998 -0.772844 -1.212574 -6.347993 -14.117769 14.241409 43.767534 -29.490108 -109.097082 4.188843 0.910121 -31.977146 -0.231910 -25.539164 -0.077323 -10.628790 73.885308 -14.051579 10.005655 -7.552105 9.278320 -0.004468 -0.003014 -0.001979 5.499445 -5.561267 4.619045 144.354733 69.725059 161.537215 -2.775104 -14.719087 -12.335997 0.000859 -0.002661 0.000381
-15.128243 126.909587 11.736871 -174.865080 -47.362457 -4.232989 2.086666 27.544523 2.606733 0.276228 4.914666 0.378592 0.430377 7.664585 0.599703 1.581149 22.449189 2.008354 4.586296 11.974771 5.321628 3.710596 -12.993840 4.692032 2.160187 3.461533 1.786995 -1.240288 -11.360162 -9.575024 -77.744844 -41.467703 135.051548 -1.051273 14.895535 20.113886 -9.972612 -0.868305 -1.176636 -6.361011 -14.180480 14.231383 43.910678 -29.539302 -109.174573 4.138720 0.941935 -31.949713 -0.237108 -25.547508 -0.077323 -10.605951 73.882775 -14.035873 10.078007 -7.559629 9.280796 0.003838 -0.003775 0.001700 5.494089 -5.571274 4.619498 144.387802 69.722781 161.570373 -2.765879 -14.723901 -12.336877 0.002487 -0.002528 0.001102
-15.128022 126.910482 11.734669 -174.862616 -47.357983 -4.238480 2.097372 27.571043 2.618554 0.275186 4.920136 0.379645 0.441193 7.718574 0.606441 1.574172 22.414150 2.006853 4.585947 11.904106 5.318040 3.727430 -13.101004 4.692869 2.187220 3.345743 1.784077 -1.232201 -11.384080 -9.590973 -77.855987 -41.427072 135.176083 -0.993745 14.915034 20.182096 -10.017434 -0.972058 -1.140255 -6.363929 -14.208693 14.214600 44.095732 -29.646503 -109.292874 4.071077 0.984336 -31.906151 -0.235242 -25.546695 -0.079340 -10.582551 73.878687 -14.016113 10.134437 -7.566009 9.284201 0.011801 -0.003713 0.005228 5.490325 -5.573647 4.619003 144.392153 69.723185 161.573755 -2.762633 -14.723343 -12.337580 0.002960 -0.003904 0.001311
-15.128428 126.910221 11.733462 -174.864956 -47.344066 -4.235504 2.104641 27.587330 2.623794 0.276500 4.928326 0.380461 0.438361 7.702995 0.604682 1.583805 22.451764 2.016561 4.576626 11.838707 5.308015 3.760752 -13.214833 4.697183 2.213689 3.221398 1.778526 -1.251846 -11.354730 -9.601884 -78.014010 -41.397212 135.406843 -0.925113 14.938175 20.226395 -10.055663 -1.087926 -1.100421 -6.361833 -14.218083 14.190040 44.328947 -29.802787 -109.445792 3.985588 1.041932 -31.838860 -0.220620 -25.558598 -0.080962 -10.591443 73.878688 -14.016904 10.116360 -7.564227 9.283553 0.013279 -0.002981 0.005883 5.490181 -5.584875 4.610686 144.384959 69.721593 161.565581 -2.763846 -14.723177 -12.336075 0.001364 -0.002925 0.000604
-15.128903 126.910113 11.732074 -174.862378 -47.330755 -4.235195 2.115483 27.640362 2.635692 0.270708 4.905415 0.379432 0.437105 7.683070 0.599841 1.589146 22.478001 2.025783 4.586928 11.772828 5.307047 3.779186 -13.293381 4.690796 2.242933 3.103876 1.772331 -1.226404 -11.355811 -9.644826 -78.219919 -41.340038 135.641101 -0.842647 14.969512 20.249447 -10.084499 -1.198760 -1.051664 -6.347936 -14.231790 14.153592 44.604549 -29.996784 -109.625162 3.882338 1.115867 -31.748989 -0.220385 -25.571059 -0.076163 -10.612898 73.883130 -14.032355 10.030063 -7.557844 9.281619 0.003691 -0.003908 0.001635 5.487349 -5.596976 4.606218 144.387978 69.720233 161.568735 -2.768907 -14.725475 -12.338337 0.001791 -0.003226 0.000794
-15.129382 126.908931 11.731612 -174.856857 -47.308350 -4.235818 2.110702 27.646955 2.637777 0.267695 4.927115 0.383748 0.445321 7.689215 0.599640 1.580705 22.439520 2.018500 4.621750 11.743047 5.322342 3.790303 -13.381724 4.667523 2.278875 3.013443 1.770442 -1.197412 -11.339270 -9.699310 -78.508974 -41.287950 135.958958 -0.739119 15.007546 20.258873 -10.101511 -1.282263 -0.990777 -6.306988 -14.255969 14.099932 44.916540 -30.232948 -109.834815 3.766585 1.198391 -31.637230 -0.218571 -25.592075 -0.073577 -10.640884 73.886840 -14.053987 9.950317 -7.553757 9.282551 -0.003957 -0.003565 -0.001753 5.481281 -5.617971 4.598846 144.393187 69.718290 161.574467 -2.770862 -14.727518 -12.343010 0.003063 -0.001434 0.001357
-15.129478 126.909742 11.729234 -174.856303 -47.301941 -4.235229 2.109612 27.650549 2.638593 0.256139 4.972750 0.393479 0.456167 7.699983 0.600027 1.579098 22.457540 2.024743 4.626127 11.658205 5.301110 3.837965 -13.486826 4.632628 2.312010 2.849355 1.745770 -1.182809 -11.291382 -9.749142 -78.898463 -41.269497 136.395394 -0.615220 15.044776 20.263300 -10.110865 -1.438527 -0.923939 -6.236669 -14.288596 14.029443 45.267634 -30.517486 -110.088062 3.641921 1.277352 -31.492581 -0.211298 -25.596539 -0.073386 -10.647662 73.889247 -14.057571 9.914913 -7.550843 9.281330 -0.006082 -0.004038 -0.002695 5.479494 -5.621763 4.595568 144.397770 69.717633 161.577758 -2.771075 -14.728749 -12.342532 0.003026 -0.001893 0.001341
-15.129459 126.910570 11.726705 -174.856496 -47.295150 -4.233736 2.098129 27.688596 2.641907 0.246733 4.986605 0.397397 0.460698 7.717431 0.599326 1.545005 22.551838 2.050193 4.673347 11.491949 5.234365 3.892242 -13.605004 4.572079 2.381074 2.592546 1.673742 -1.172069 -11.221041 -9.799376 -79.412506 -41.287986 136.955643 -0.481789 15.072856 20.281327 -10.067976 -1.687094 -0.868092 -6.146777 -14.321618 13.940867 45.675210 -30.859798 -110.399667 3.514816 1.346469 -31.314294 -0.205351 -25.601009 -0.075152 -10.642165 73.890934 -14.052420 9.900133 -7.551362 9.284919 -0.006896 -0.004768 -0.003055 5.478284 -5.626193 4.593114 144.402846 69.716741 161.578085 -2.770121 -14.731673 -12.336560 0.001697 -0.002923 0.000752
